<?xml version="1.0" encoding="UTF-8"?>
<svg width="56px" height="80px" viewBox="0 0 56 80" version="1.1" xmlns="http://www.w3.org/2000/svg" xmlns:xlink="http://www.w3.org/1999/xlink">
    <!-- Generator: Sketch 50.2 (55047) - http://www.bohemiancoding.com/sketch -->
    <title>icons / 40 / wallet</title>
    <desc>Created with Sketch.</desc>
    <defs></defs>
    <g id="Page-1" stroke="none" stroke-width="1" fill="none" fill-rule="evenodd">
        <g id="SKС_system-success" transform="translate(-692.000000, -425.000000)">
            <g id="icons-/-40-/-wallet" transform="translate(680.000000, 425.000000)">
                <g id="wallet" transform="translate(12.000000, 0.000000)">
                    <path d="M48.6626573,28.8461538 L35.5507692,28.8461538 L35.5507692,31.4685315 L48.6626573,31.4685315 C50.8313287,31.4685315 52.5963636,33.2332867 52.5963636,35.4022378 L52.5963636,40.6811189 C51.4976224,39.8483916 50.1443357,39.3359441 48.6626573,39.3359441 L6.70461538,39.3359441 C4.53594406,39.3359441 2.77090909,37.5711888 2.77090909,35.4022378 C2.77090909,33.2332867 4.53594406,31.4685315 6.70461538,31.4685315 L21.1278322,31.4685315 L21.1278322,28.8461538 L6.70461538,28.8461538 C3.08979021,28.8461538 0.148531469,31.7871329 0.148531469,35.4022378 L0.148531469,73.4265734 C0.148531469,77.0413986 3.08951049,79.9826573 6.70461538,79.9826573 L48.6626573,79.9826573 C52.2774825,79.9826573 55.2187413,77.0416783 55.2187413,73.4265734 L55.2187413,69.4928671 L55.2187413,51.1362238 L55.2187413,45.8914685 L55.2187413,35.401958 C55.2184615,31.7871329 52.2774825,28.8461538 48.6626573,28.8461538 Z M52.5960839,66.8707692 L36.8618182,66.8707692 C33.246993,66.8707692 30.3057343,63.9297902 30.3057343,60.3146853 C30.3057343,56.6995804 33.2467133,53.7586014 36.8618182,53.7586014 L52.5960839,53.7586014 L52.5960839,66.8707692 Z M52.5960839,51.1365035 L36.8618182,51.1365035 C31.8005594,51.1365035 27.6833566,55.2548252 27.6833566,60.314965 C27.6833566,65.3751049 31.8005594,69.4934266 36.8618182,69.4934266 L52.5960839,69.4934266 L52.5960839,73.4265734 C52.5960839,75.5952448 50.8313287,77.3602797 48.6623776,77.3602797 L6.70433566,77.3602797 C4.53566434,77.3602797 2.77062937,75.5955245 2.77062937,73.4265734 L2.77062937,40.6441958 C3.86685315,41.4688112 5.22909091,41.958042 6.70433566,41.958042 L48.6623776,41.958042 C50.831049,41.958042 52.5960839,43.7227972 52.5960839,45.8917483 L52.5960839,51.1365035 Z" id="Shape" fill="#9B9B9B" fill-rule="nonzero"></path>
                    <rect id="Rectangle-path" fill="#9B9B9B" fill-rule="nonzero" x="6.70461538" y="34.0909091" width="41.958042" height="2.62237762"></rect>
                    <circle id="Oval" fill="#4A4A4A" fill-rule="nonzero" cx="28" cy="26" r="10"></circle>
                    <path d="M32.9283916,60.3146853 C32.9283916,62.4833566 34.6931469,64.2483916 36.8620979,64.2483916 C39.031049,64.2483916 40.7958042,62.4836364 40.7958042,60.3146853 C40.7958042,58.1457343 39.031049,56.380979 36.8620979,56.380979 C34.6931469,56.380979 32.9283916,58.146014 32.9283916,60.3146853 Z M38.1731469,60.3146853 C38.1731469,61.0383217 37.5843357,61.626014 36.8618182,61.626014 C36.1393007,61.626014 35.5504895,61.0386014 35.5504895,60.3146853 C35.5504895,59.5907692 36.1393007,59.0033566 36.8618182,59.0033566 C37.5843357,59.0033566 38.1731469,59.591049 38.1731469,60.3146853 Z" id="Shape" fill="#9B9B9B" fill-rule="nonzero"></path>
                    <rect id="Rectangle-path" fill="#9B9B9B" fill-rule="nonzero" x="26.3723077" y="0" width="2.62237762" height="10.4895105"></rect>
                    <rect id="Rectangle-path" fill="#9B9B9B" fill-rule="nonzero" x="35.5507692" y="3.93370629" width="2.62237762" height="10.4895105"></rect>
                    <rect id="Rectangle-path" fill="#9B9B9B" fill-rule="nonzero" x="17.1941259" y="6.55608392" width="2.62237762" height="7.86713287"></rect>
                    <path d="M24,30.4415584 L25.1948052,29.2640693 C25.9047619,30.1298701 26.9090909,30.8225108 28.1558442,30.8225108 C29.2813853,30.8225108 30.2683983,30.0952381 30.2683983,29.004329 C30.2683983,27.1515152 27.7056277,26.9437229 26.0952381,25.8874459 C25.2294372,25.3160173 24.5541126,24.4848485 24.5541126,23.2207792 C24.5541126,21.4545455 26.1125541,20 28.2251082,20 C29.7662338,20 30.8398268,20.6753247 31.4805195,21.2121212 L30.4588745,22.4761905 C29.8008658,21.9220779 29.0562771,21.6450216 28.2943723,21.6450216 C27.2900433,21.6450216 26.2857143,22.2164502 26.2857143,23.2727273 C26.2857143,24.8138528 28.8658009,25.1428571 30.4242424,26.1818182 C31.2380952,26.7186147 32,27.5670996 32,28.952381 C32,31.0822511 30.3549784,32.4675325 28.2424242,32.4675325 C26.5800866,32.4675325 25.0735931,31.7402597 24,30.4415584 Z" id="S" fill="#FFFFFF"></path>
                </g>
            </g>
        </g>
    </g>
</svg>